<?xml version="1.0" encoding="UTF-8" standalone="no"?>
<svg
    width="100px" height="115.47px" viewBox="0 0 100 115.47"
    xmlns="http://www.w3.org/2000/svg"
    xmlns:svg="http://www.w3.org/2000/svg"
>
    <style>
        text {
        font-size: 0.4px;
        }
        .path {
        stroke: rgb(0, 0, 50);
        stroke-width: 0.15666546730064757;
        stroke-linejoin: round;
        }
        .path-cube-top {
        fill: #EEE;
        }
        .path-cube-left {
        fill: #CCC;
        }
        .path-cube-right {
        fill: #DDD;
        }
        .path-outer {
        fill: #FFF;
        }
    </style>
    <g id="layer1"
        transform="scale(14.361812074910906) translate(3.481454828903279, 4.020035890934617)">
        <path id="pathOuterShape0" class="path"
            d="M -1.4012585384440737 2.8090169943749475 L -0.2802517076888147 3.456230589874905 Q 0 3.6180339887498945 0.34641016151377535 3.4180339887498947 L 1.7320508075688776 2.618033988749895 L 1.7320508075688776 2.618033988749895 L 1.7320508075688774 1 Z"
            style="fill: greenyellow;"></path>
        <path id="pathOuterShape1" class="path"
            d="M 1.7320508075688776 2.618033988749895 L 2.8530576383241364 1.9708203932499369 Q 3.1333093460129513 1.8090169943749472 3.1333093460129513 1.4090169943749473 L 3.1333093460129513 -0.19098300562505277 L 3.1333093460129513 -0.19098300562505277 L 1.7320508075688774 -1 Z"
            style="fill: yellow;"></path>
        <path id="pathOuterShape2" class="path"
            d="M 3.1333093460129513 -0.19098300562505277 L 3.1333093460129513 -1.4854101966249684 Q 3.1333093460129513 -1.8090169943749472 2.786899184499176 -2.009016994374947 L 1.4012585384440737 -2.8090169943749475 L 1.4012585384440737 -2.8090169943749475 L 0 -2 Z"
            style="fill: orange;"></path>
        <path id="pathOuterShape3" class="path"
            d="M 1.4012585384440737 -2.8090169943749475 L 0.2802517076888147 -3.456230589874905 Q 0 -3.6180339887498945 -0.34641016151377535 -3.4180339887498947 L -1.7320508075688776 -2.618033988749895 L -1.7320508075688776 -2.618033988749895 L -1.7320508075688774 -1 Z"
            style="fill: red;"></path>
        <path id="pathOuterShape4" class="path"
            d="M -1.7320508075688776 -2.618033988749895 L -2.8530576383241364 -1.9708203932499369 Q -3.1333093460129513 -1.8090169943749472 -3.1333093460129513 -1.4090169943749473 L -3.1333093460129513 0.19098300562505277 L -3.1333093460129513 0.19098300562505277 L -1.7320508075688774 1 Z"
            style="fill: mediumpurple;"></path>
        <path id="pathOuterShape5" class="path"
            d="M -3.1333093460129513 0.19098300562505277 L -3.1333093460129513 1.4854101966249684 Q -3.1333093460129513 1.8090169943749472 -2.786899184499176 2.009016994374947 L -1.4012585384440737 2.8090169943749475 L -1.4012585384440737 2.8090169943749475 L 0 2 Z"
            style="fill: skyblue;"></path>
        <path id="pathCubeTop" class="path path-cube-top"
            d="M 0 -1.1102230246251565e-16 L 1.7320508075688774 -1 L 0 -2 L -1.7320508075688774 -1 Z"></path>
        <path id="pathCubeLeft" class="path path-cube-left"
            d="M 0 2 L 0 -1.1102230246251565e-16 L -1.7320508075688774 -1 L -1.7320508075688774 1 Z"></path>
        <path id="pathCubeRight" class="path path-cube-right"
            d="M 0 2 L 1.7320508075688774 1 L 1.7320508075688774 -1 L 0 -1.1102230246251565e-16 Z"></path>
    </g>
</svg>